<svg xmlns="http://www.w3.svg/2000/svg" width="512" height="512" viewBox="0 0 512 512" fill="none">
  <rect width="512" height="512" rx="100" fill="#7c3aed"/>
  <path d="M153.6 307.2C153.6 363.755 199.446 409.6 256 409.6C312.554 409.6 358.4 363.755 358.4 307.2C358.4 250.646 312.554 204.8 256 204.8C199.446 204.8 153.6 250.646 153.6 307.2Z" fill="white"/>
  <path d="M256 102.4C227.723 102.4 204.8 125.323 204.8 153.6C204.8 181.877 227.723 204.8 256 204.8C284.277 204.8 307.2 181.877 307.2 153.6C307.2 125.323 284.277 102.4 256 102.4Z" fill="white"/>
  <path d="M128 256C128 270.141 140.523 281.6 154.667 281.6C168.811 281.6 181.333 270.141 181.333 256C181.333 241.859 168.811 230.4 154.667 230.4C140.523 230.4 128 241.859 128 256Z" fill="white"/>
</svg>
