<svg xmlns="http://www.w3.svg/2000/svg" width="192" height="192" viewBox="0 0 192 192" fill="none">
  <rect width="192" height="192" rx="40" fill="#7c3aed"/>
  <path d="M57.6 115.2C57.6 136.408 74.7924 153.6 96 153.6C117.208 153.6 134.4 136.408 134.4 115.2C134.4 93.9924 117.208 76.8 96 76.8C74.7924 76.8 57.6 93.9924 57.6 115.2Z" fill="white"/>
  <path d="M96 38.4C85.396 38.4 76.8 46.996 76.8 57.6C76.8 68.204 85.396 76.8 96 76.8C106.604 76.8 115.2 68.204 115.2 57.6C115.2 46.996 106.604 38.4 96 38.4Z" fill="white"/>
  <path d="M48 96C48 101.304 52.696 105.6 58 105.6C63.304 105.6 68 101.304 68 96C68 90.696 63.304 86.4 58 86.4C52.696 86.4 48 90.696 48 96Z" fill="white"/>
</svg>
